<?xml version="1.0" encoding="UTF-8"?>
<svg id="Objects" xmlns="http://www.w3.org/2000/svg" xmlns:xlink="http://www.w3.org/1999/xlink" viewBox="0 0 2200 2200">
  <defs>
    <style>
      .cls-1 {
        fill: #165f00;
        filter: url(#drop-shadow-2);
      }

      .cls-1, .cls-2, .cls-3, .cls-4, .cls-5 {
        stroke-width: 0px;
      }

      .cls-2 {
        fill: url(#Degradado_sin_nombre_38-2);
      }

      .cls-3 {
        fill: url(#Degradado_sin_nombre_38);
      }

      .cls-4, .cls-5 {
        fill: #fff;
      }

      .cls-5 {
        filter: url(#drop-shadow-1);
      }
    </style>
    <filter id="drop-shadow-1" filterUnits="userSpaceOnUse">
      <feOffset dx="7" dy="7"/>
      <feGaussianBlur result="blur" stdDeviation="9"/>
      <feFlood flood-color="#1d1d1b" flood-opacity=".75"/>
      <feComposite in2="blur" operator="in"/>
      <feComposite in="SourceGraphic"/>
    </filter>
    <filter id="drop-shadow-2" filterUnits="userSpaceOnUse">
      <feOffset dx="7" dy="7"/>
      <feGaussianBlur result="blur-2" stdDeviation="9"/>
      <feFlood flood-color="#1d1d1b" flood-opacity=".75"/>
      <feComposite in2="blur-2" operator="in"/>
      <feComposite in="SourceGraphic"/>
    </filter>
    <radialGradient id="Degradado_sin_nombre_38" data-name="Degradado sin nombre 38" cx="1008.53" cy="987.25" fx="1008.53" fy="987.25" r="372.4" gradientUnits="userSpaceOnUse">
      <stop offset="0" stop-color="#18bf00"/>
      <stop offset="1" stop-color="#112a00"/>
    </radialGradient>
    <radialGradient id="Degradado_sin_nombre_38-2" data-name="Degradado sin nombre 38" cx="1014.29" cy="1556.75" fx="1014.29" fy="1556.75" r="372.48" gradientTransform="translate(2122.82 -664.13) rotate(50.64) scale(1 1.46)" xlink:href="#Degradado_sin_nombre_38"/>
  </defs>
  <rect class="cls-5" x="69.62" y="696" width="2045" height="1409" rx="100.99" ry="100.99"/>
  <rect class="cls-1" x="69.62" y="89" width="2045" height="505" rx="100.99" ry="100.99"/>
  <g>
    <circle class="cls-3" cx="1092.12" cy="1045.2" r="237.2"/>
    <path class="cls-2" d="M1462.01,1858.83c-100.44,68.42-229.33,86.91-369.88,86.91s-269.44-18.49-369.88-86.91c-32.63-22.23-50.46-60.46-46.79-99.78,25.7-275.55,234.54-405.62,416.67-405.62s390.97,130.07,416.67,405.62c3.67,39.31-14.16,77.55-46.79,99.78Z"/>
  </g>
  <g>
    <path class="cls-4" d="M506.6,166.15c13.32,0,23.31,3.65,29.97,10.94,6.66,7.3,9.99,17.41,9.99,30.35,0,27.65-14.46,41.48-43.38,41.48h-14.27v53.08h-31.96v-135.85h49.66ZM488.9,225.32h8.56c10.65,0,15.98-5.71,15.98-17.12,0-6.97-1.46-11.8-4.38-14.46-2.92-2.66-6.98-4-12.18-4h-7.99v35.58Z"/>
    <path class="cls-4" d="M592.79,196.4c10.15,0,18.2,1.78,24.16,5.33,5.96,3.55,10.24,9.01,12.84,16.36,2.6,7.36,3.9,18.65,3.9,33.87v3.62h-51.94v6.85c0,8.75.89,14.81,2.66,18.17,1.78,3.36,4.63,5.04,8.56,5.04s6.69-1.43,8.28-4.28c1.58-2.85,2.57-7.71,2.95-14.56h28.54c-.64,25.24-13.96,37.86-39.96,37.86-10.4,0-18.62-1.9-24.64-5.71-6.03-3.8-10.4-9.38-13.13-16.74-2.73-7.36-4.09-19.09-4.09-35.2,0-17.76,3.42-30.63,10.27-38.62,6.85-7.99,17.38-11.99,31.58-11.99ZM604.01,237.69v-.95c0-7.1-.73-12.43-2.19-15.98-1.46-3.55-4.22-5.33-8.28-5.33-4.44,0-7.52,1.62-9.23,4.85-1.71,3.23-2.57,8.59-2.57,16.08v1.33h22.26Z"/>
    <path class="cls-4" d="M700.67,196.4c2.16,0,3.81.13,4.95.38v28.92c-2.28-.51-5.46-.76-9.51-.76-5.71,0-10.37,1.46-13.98,4.38-3.62,2.92-5.42,7.99-5.42,15.22v57.46h-30.82v-102.93h29.68v14.46h.38c5.07-11.29,13.32-17,24.73-17.12Z"/>
    <path class="cls-4" d="M752.42,196.4c12.18,0,21.43,2.47,27.78,7.42,6.34,4.95,9.51,12.18,9.51,21.69v3.23h-27.4v-1.71c0-4.31-.76-7.33-2.28-9.04s-4.12-2.57-7.8-2.57c-6.98,0-10.46,3.17-10.46,9.51,0,3.55,1.65,6.22,4.95,7.99,3.3,1.78,7.93,3.55,13.89,5.33,11.8,3.42,19.82,7.71,24.07,12.84,4.25,5.14,6.37,11.77,6.37,19.88,0,10.78-3.39,19.09-10.18,24.92-6.79,5.83-16.52,8.75-29.21,8.75-13.83,0-23.82-2.54-29.97-7.61-6.15-5.07-9.23-12.87-9.23-23.4v-4.38h27.4c.25,5.96,1.33,10.18,3.23,12.65,1.9,2.47,4.69,3.71,8.37,3.71s6.44-.98,8.28-2.95c1.84-1.97,2.76-4.47,2.76-7.52s-1.05-5.58-3.14-7.61c-2.09-2.03-5.49-3.87-10.18-5.52-14.97-4.82-24.71-9.58-29.21-14.27-4.5-4.69-6.75-11.48-6.75-20.36,0-10.15,3.33-17.85,9.99-23.12,6.66-5.26,16.39-7.9,29.21-7.9Z"/>
    <path class="cls-4" d="M843.36,196.4c15.22,0,26.1,3.93,32.63,11.8,6.53,7.87,9.8,21.88,9.8,42.05s-3.46,34.12-10.37,42.24c-6.92,8.12-17.6,12.18-32.06,12.18-10.53,0-18.87-1.78-25.02-5.33-6.15-3.55-10.59-9-13.32-16.36-2.73-7.35-4.09-18.08-4.09-32.15,0-19.79,3.46-33.8,10.37-42.05,6.91-8.24,17.6-12.37,32.06-12.37ZM831.75,250.44c0,13.32.89,22.33,2.66,27.02,1.78,4.69,4.82,7.04,9.13,7.04s7.29-2.16,8.94-6.47c1.65-4.31,2.47-13.44,2.47-27.4s-.79-22.96-2.38-27.4c-1.59-4.44-4.66-6.66-9.23-6.66-4.06,0-7.01,2.22-8.85,6.66-1.84,4.44-2.76,13.51-2.76,27.21Z"/>
    <path class="cls-4" d="M954.28,196.4c17.88,0,26.83,9.58,26.83,28.73v76.87h-30.82v-70.02c0-7.99-2.98-11.99-8.94-11.99-3.3,0-5.96,1.3-7.99,3.9-2.03,2.6-3.04,6.12-3.04,10.56v67.54h-30.82v-102.93h29.68v12.18h.38c2.28-4.82,5.61-8.5,9.99-11.04,4.38-2.54,9.29-3.8,14.75-3.8Z"/>
    <path class="cls-4" d="M1037.62,196.4c13.44,0,22.96,2.44,28.54,7.33,5.58,4.88,8.37,12.59,8.37,23.12v55.56c0,10.28,1.2,16.81,3.61,19.6h-29.68c-.89-2.03-1.46-5.96-1.71-11.8h-.38c-2.16,4.57-5.39,8.12-9.7,10.66-4.31,2.54-9.13,3.81-14.46,3.81-18.27,0-27.4-10.4-27.4-31.2,0-8.75,2.16-15.66,6.47-20.74,4.31-5.07,12.37-9.01,24.16-11.8l9.89-2.28c4.44-1.14,7.33-2.38,8.66-3.71,1.33-1.33,2-4.03,2-8.09,0-6.85-3.23-10.27-9.7-10.27-3.8,0-6.6,1.05-8.37,3.14-1.78,2.09-2.73,5.74-2.85,10.94h-27.4c0-11.42,3.04-19.98,9.13-25.69,6.09-5.71,16.36-8.56,30.82-8.56ZM1024.49,270.23c.12,8.75,3.11,13.13,8.94,13.13,8.12-.12,12.24-4.76,12.37-13.89l.19-19.41c-2.28,1.9-5.71,3.87-10.27,5.9-5.2,1.9-8.37,3.87-9.51,5.9-1.14,2.03-1.71,4.82-1.71,8.37Z"/>
    <path class="cls-4" d="M1174.42,199.07v107.12c0,11.04-2.25,18.68-6.75,22.93-4.5,4.25-12.84,6.37-25.02,6.37-2.79,0-7.04-.13-12.75-.38v-21.12c1.27.12,2.79.19,4.57.19,3.55,0,5.96-.86,7.23-2.57,1.27-1.71,1.9-4.92,1.9-9.61v-102.93h30.82ZM1174.42,164.63v23.59h-30.82v-23.59h30.82Z"/>
    <path class="cls-4" d="M1223.12,199.07v70.4c0,7.74,2.98,11.61,8.94,11.61,3.3,0,5.96-1.3,7.99-3.9,2.03-2.6,3.04-6.06,3.04-10.37v-67.73h30.82v102.93h-29.68v-12.18h-.38c-2.41,4.95-5.8,8.66-10.18,11.13-4.38,2.47-9.23,3.71-14.56,3.71-17.88,0-26.83-9.51-26.83-28.54v-77.06h30.82Z"/>
    <path class="cls-4" d="M1345.84,196.4c2.16,0,3.81.13,4.95.38v28.92c-2.28-.51-5.46-.76-9.51-.76-5.71,0-10.37,1.46-13.98,4.38-3.62,2.92-5.42,7.99-5.42,15.22v57.46h-30.82v-102.93h29.68v14.46h.38c5.07-11.29,13.32-17,24.73-17.12Z"/>
    <path class="cls-4" d="M1393.03,199.07v102.93h-30.82v-102.93h30.82ZM1401.59,161.02l-19.03,27.02h-20.17l9.51-27.02h29.68Z"/>
    <path class="cls-4" d="M1492.53,166.15v135.85h-29.68v-12.56h-.38c-3.68,10.15-11.1,15.22-22.26,15.22s-18.93-4.31-24.07-12.94c-5.14-8.62-7.71-22.13-7.71-40.53,0-20.17,2.38-34.34,7.13-42.52,4.76-8.18,12.33-12.27,22.74-12.27s18.58,4.63,23.02,13.89h.38v-44.14h30.82ZM1451.24,282.21c4.44,0,7.39-2.6,8.85-7.8,1.46-5.2,2.19-13,2.19-23.4,0-12.94-.89-21.53-2.66-25.78-1.78-4.25-4.69-6.37-8.75-6.37-2.92,0-5.2.86-6.85,2.57-1.65,1.71-2.85,4.19-3.62,7.42-.76,3.23-1.14,10.18-1.14,20.83,0,13.07.95,21.76,2.85,26.07,1.9,4.31,4.95,6.47,9.13,6.47Z"/>
    <path class="cls-4" d="M1541.24,164.63v23.59h-30.82v-23.59h30.82ZM1541.24,199.07v102.93h-30.82v-102.93h30.82Z"/>
    <path class="cls-4" d="M1597.75,196.4c13.82,0,24.04,3.17,30.63,9.51,6.59,6.34,9.89,16.74,9.89,31.2v.76h-28.54c0-7.61-.92-13.06-2.76-16.36-1.84-3.3-4.79-4.95-8.85-4.95s-7.01,2.35-8.85,7.04c-1.84,4.7-2.76,13.7-2.76,27.02s.86,22.77,2.57,27.21c1.71,4.44,4.72,6.66,9.04,6.66,4.57,0,7.58-1.9,9.04-5.71,1.46-3.81,2.31-10.02,2.57-18.65h28.54c0,15.48-3.3,26.76-9.89,33.87-6.6,7.11-16.87,10.66-30.82,10.66-10.4,0-18.62-1.94-24.64-5.8-6.03-3.87-10.4-9.45-13.13-16.74-2.73-7.29-4.09-18.99-4.09-35.1s3.2-29.52,9.61-37.96c6.4-8.43,17.22-12.65,32.44-12.65Z"/>
    <path class="cls-4" d="M1690.02,196.4c13.44,0,22.96,2.44,28.54,7.33,5.58,4.88,8.37,12.59,8.37,23.12v55.56c0,10.28,1.2,16.81,3.61,19.6h-29.68c-.89-2.03-1.46-5.96-1.71-11.8h-.38c-2.16,4.57-5.39,8.12-9.7,10.66-4.31,2.54-9.13,3.81-14.46,3.81-18.27,0-27.4-10.4-27.4-31.2,0-8.75,2.16-15.66,6.47-20.74,4.31-5.07,12.37-9.01,24.16-11.8l9.89-2.28c4.44-1.14,7.33-2.38,8.66-3.71,1.33-1.33,2-4.03,2-8.09,0-6.85-3.23-10.27-9.7-10.27-3.8,0-6.6,1.05-8.37,3.14-1.78,2.09-2.73,5.74-2.85,10.94h-27.4c0-11.42,3.04-19.98,9.13-25.69,6.09-5.71,16.36-8.56,30.82-8.56ZM1676.89,270.23c.12,8.75,3.11,13.13,8.94,13.13,8.12-.12,12.24-4.76,12.37-13.89l.19-19.41c-2.28,1.9-5.71,3.87-10.27,5.9-5.2,1.9-8.37,3.87-9.51,5.9-1.14,2.03-1.71,4.82-1.71,8.37Z"/>
    <path class="cls-4" d="M555.78,424.72c15.22,0,26.1,3.93,32.63,11.8,6.53,7.87,9.8,21.88,9.8,42.05s-3.46,34.12-10.37,42.24c-6.92,8.12-17.6,12.18-32.06,12.18-10.53,0-18.87-1.78-25.02-5.33-6.15-3.55-10.59-9-13.32-16.36-2.73-7.36-4.09-18.08-4.09-32.15,0-19.79,3.46-33.8,10.37-42.05,6.91-8.24,17.6-12.37,32.06-12.37ZM544.17,478.75c0,13.32.89,22.33,2.66,27.02,1.78,4.69,4.82,7.04,9.13,7.04s7.29-2.16,8.94-6.47c1.65-4.31,2.47-13.44,2.47-27.4s-.79-22.96-2.38-27.4c-1.59-4.44-4.66-6.66-9.23-6.66-4.06,0-7.01,2.22-8.85,6.66-1.84,4.44-2.76,13.51-2.76,27.21Z"/>
    <path class="cls-4" d="M646.73,397.13v30.25h14.27v21.31h-14.27v52.13c0,3.42.7,5.84,2.09,7.23,1.39,1.4,3.87,2.09,7.42,2.09,1.52,0,3.11-.12,4.76-.38v20.55c-5.84.76-12.24,1.14-19.22,1.14-7.49,0-12.91-.76-16.27-2.28-3.36-1.52-5.8-4.15-7.33-7.9-1.52-3.74-2.28-9.23-2.28-16.46v-56.13h-12.75v-21.31h12.75v-30.25h30.82Z"/>
    <path class="cls-4" d="M726.63,424.72c2.16,0,3.81.13,4.95.38v28.92c-2.28-.51-5.46-.76-9.51-.76-5.71,0-10.37,1.46-13.98,4.38-3.62,2.92-5.42,7.99-5.42,15.22v57.46h-30.82v-102.93h29.68v14.46h.38c5.07-11.29,13.32-17,24.73-17.12Z"/>
    <path class="cls-4" d="M779.34,424.72c13.44,0,22.96,2.44,28.54,7.33,5.58,4.88,8.37,12.59,8.37,23.12v55.56c0,10.27,1.2,16.81,3.61,19.6h-29.68c-.89-2.03-1.46-5.96-1.71-11.8h-.38c-2.16,4.57-5.39,8.12-9.7,10.66-4.31,2.54-9.13,3.8-14.46,3.8-18.27,0-27.4-10.4-27.4-31.2,0-8.75,2.16-15.66,6.47-20.74,4.31-5.07,12.37-9,24.16-11.8l9.89-2.28c4.44-1.14,7.33-2.38,8.66-3.71,1.33-1.33,2-4.03,2-8.09,0-6.85-3.23-10.27-9.7-10.27-3.8,0-6.6,1.05-8.37,3.14-1.78,2.09-2.73,5.74-2.85,10.94h-27.4c0-11.42,3.04-19.98,9.13-25.69,6.09-5.71,16.36-8.56,30.82-8.56ZM766.21,498.54c.12,8.75,3.11,13.13,8.94,13.13,8.12-.12,12.24-4.76,12.37-13.89l.19-19.41c-2.28,1.9-5.71,3.87-10.27,5.9-5.2,1.9-8.37,3.87-9.51,5.9-1.14,2.03-1.71,4.82-1.71,8.37Z"/>
    <path class="cls-4" d="M871.23,424.72c12.18,0,21.43,2.47,27.78,7.42,6.34,4.95,9.51,12.18,9.51,21.69v3.23h-27.4v-1.71c0-4.31-.76-7.33-2.28-9.04-1.52-1.71-4.12-2.57-7.8-2.57-6.98,0-10.46,3.17-10.46,9.51,0,3.55,1.65,6.22,4.95,7.99,3.3,1.78,7.93,3.55,13.89,5.33,11.8,3.42,19.82,7.71,24.07,12.84,4.25,5.14,6.37,11.77,6.37,19.88,0,10.78-3.39,19.09-10.18,24.92-6.79,5.84-16.52,8.75-29.21,8.75-13.83,0-23.82-2.54-29.97-7.61-6.15-5.07-9.23-12.87-9.23-23.4v-4.38h27.4c.25,5.96,1.33,10.18,3.23,12.65,1.9,2.47,4.69,3.71,8.37,3.71s6.44-.98,8.28-2.95c1.84-1.97,2.76-4.47,2.76-7.52s-1.05-5.58-3.14-7.61c-2.09-2.03-5.49-3.87-10.18-5.52-14.97-4.82-24.71-9.58-29.21-14.27-4.5-4.69-6.75-11.48-6.75-20.36,0-10.15,3.33-17.85,9.99-23.12,6.66-5.26,16.39-7.9,29.21-7.9Z"/>
    <path class="cls-4" d="M1011.27,424.72c13.82,0,24.04,3.17,30.63,9.51,6.59,6.34,9.89,16.74,9.89,31.2v.76h-28.54c0-7.61-.92-13.06-2.76-16.36-1.84-3.3-4.79-4.95-8.85-4.95s-7.01,2.35-8.85,7.04c-1.84,4.69-2.76,13.7-2.76,27.02s.86,22.77,2.57,27.21c1.71,4.44,4.72,6.66,9.04,6.66,4.57,0,7.58-1.9,9.04-5.71,1.46-3.81,2.31-10.02,2.57-18.65h28.54c0,15.48-3.3,26.76-9.89,33.87-6.6,7.11-16.87,10.65-30.82,10.65-10.4,0-18.62-1.94-24.64-5.8-6.03-3.87-10.4-9.45-13.13-16.74-2.73-7.29-4.09-18.99-4.09-35.1s3.2-29.52,9.61-37.96c6.4-8.43,17.22-12.65,32.44-12.65Z"/>
    <path class="cls-4" d="M1095.74,392.95v23.59h-30.82v-23.59h30.82ZM1095.74,427.38v102.93h-30.82v-102.93h30.82Z"/>
    <path class="cls-4" d="M1144.45,427.38v70.4c0,7.74,2.98,11.61,8.94,11.61,3.3,0,5.96-1.3,7.99-3.9,2.03-2.6,3.04-6.06,3.04-10.37v-67.73h30.82v102.93h-29.68v-12.18h-.38c-2.41,4.95-5.8,8.66-10.18,11.13s-9.23,3.71-14.56,3.71c-17.88,0-26.83-9.51-26.83-28.54v-77.06h30.82Z"/>
    <path class="cls-4" d="M1293.99,394.47v135.85h-29.68v-12.56h-.38c-3.68,10.15-11.1,15.22-22.26,15.22s-18.93-4.31-24.07-12.94c-5.14-8.62-7.71-22.13-7.71-40.53,0-20.17,2.38-34.34,7.13-42.52,4.76-8.18,12.33-12.27,22.74-12.27s18.58,4.63,23.02,13.89h.38v-44.14h30.82ZM1252.71,510.53c4.44,0,7.39-2.6,8.85-7.8,1.46-5.2,2.19-13,2.19-23.4,0-12.94-.89-21.53-2.66-25.78-1.78-4.25-4.69-6.37-8.75-6.37-2.92,0-5.2.86-6.85,2.57-1.65,1.71-2.85,4.19-3.62,7.42-.76,3.23-1.14,10.18-1.14,20.83,0,13.07.95,21.76,2.85,26.07,1.9,4.31,4.95,6.47,9.13,6.47Z"/>
    <path class="cls-4" d="M1350.5,424.72c13.44,0,22.96,2.44,28.54,7.33,5.58,4.88,8.37,12.59,8.37,23.12v55.56c0,10.27,1.2,16.81,3.61,19.6h-29.68c-.89-2.03-1.46-5.96-1.71-11.8h-.38c-2.16,4.57-5.39,8.12-9.7,10.66-4.31,2.54-9.13,3.8-14.46,3.8-18.27,0-27.4-10.4-27.4-31.2,0-8.75,2.16-15.66,6.47-20.74,4.31-5.07,12.37-9,24.16-11.8l9.89-2.28c4.44-1.14,7.33-2.38,8.66-3.71,1.33-1.33,2-4.03,2-8.09,0-6.85-3.23-10.27-9.7-10.27-3.8,0-6.6,1.05-8.37,3.14-1.78,2.09-2.73,5.74-2.85,10.94h-27.4c0-11.42,3.04-19.98,9.13-25.69,6.09-5.71,16.36-8.56,30.82-8.56ZM1337.37,498.54c.12,8.75,3.11,13.13,8.94,13.13,8.12-.12,12.24-4.76,12.37-13.89l.19-19.41c-2.28,1.9-5.71,3.87-10.27,5.9-5.2,1.9-8.37,3.87-9.51,5.9-1.14,2.03-1.71,4.82-1.71,8.37Z"/>
    <path class="cls-4" d="M1487.87,394.47v135.85h-29.68v-12.56h-.38c-3.68,10.15-11.1,15.22-22.26,15.22s-18.93-4.31-24.07-12.94c-5.14-8.62-7.71-22.13-7.71-40.53,0-20.17,2.38-34.34,7.13-42.52,4.76-8.18,12.33-12.27,22.74-12.27s18.58,4.63,23.02,13.89h.38v-44.14h30.82ZM1446.58,510.53c4.44,0,7.39-2.6,8.85-7.8,1.46-5.2,2.19-13,2.19-23.4,0-12.94-.89-21.53-2.66-25.78-1.78-4.25-4.69-6.37-8.75-6.37-2.92,0-5.2.86-6.85,2.57-1.65,1.71-2.85,4.19-3.62,7.42-.76,3.23-1.14,10.18-1.14,20.83,0,13.07.95,21.76,2.85,26.07,1.9,4.31,4.95,6.47,9.13,6.47Z"/>
    <path class="cls-4" d="M1543.43,424.72c10.15,0,18.2,1.78,24.16,5.33,5.96,3.55,10.24,9.01,12.84,16.36,2.6,7.36,3.9,18.65,3.9,33.87v3.62h-51.94v6.85c0,8.75.89,14.81,2.66,18.17,1.78,3.36,4.63,5.04,8.56,5.04s6.69-1.43,8.28-4.28c1.58-2.85,2.57-7.71,2.95-14.56h28.54c-.64,25.24-13.96,37.86-39.96,37.86-10.4,0-18.62-1.9-24.64-5.71-6.03-3.81-10.4-9.39-13.13-16.74-2.73-7.35-4.09-19.09-4.09-35.2,0-17.76,3.42-30.63,10.27-38.62,6.85-7.99,17.38-11.99,31.58-11.99ZM1554.65,466.01v-.95c0-7.1-.73-12.43-2.19-15.98-1.46-3.55-4.22-5.33-8.28-5.33-4.44,0-7.52,1.62-9.23,4.85-1.71,3.23-2.57,8.59-2.57,16.08v1.33h22.26Z"/>
    <path class="cls-4" d="M1632.66,424.72c12.18,0,21.43,2.47,27.78,7.42,6.34,4.95,9.51,12.18,9.51,21.69v3.23h-27.4v-1.71c0-4.31-.76-7.33-2.28-9.04-1.52-1.71-4.12-2.57-7.8-2.57-6.98,0-10.46,3.17-10.46,9.51,0,3.55,1.65,6.22,4.95,7.99,3.3,1.78,7.93,3.55,13.89,5.33,11.8,3.42,19.82,7.71,24.07,12.84,4.25,5.14,6.37,11.77,6.37,19.88,0,10.78-3.39,19.09-10.18,24.92-6.79,5.84-16.52,8.75-29.21,8.75-13.83,0-23.82-2.54-29.97-7.61-6.15-5.07-9.23-12.87-9.23-23.4v-4.38h27.4c.25,5.96,1.33,10.18,3.23,12.65,1.9,2.47,4.69,3.71,8.37,3.71s6.44-.98,8.28-2.95c1.84-1.97,2.76-4.47,2.76-7.52s-1.05-5.58-3.14-7.61c-2.09-2.03-5.49-3.87-10.18-5.52-14.97-4.82-24.71-9.58-29.21-14.27-4.5-4.69-6.75-11.48-6.75-20.36,0-10.15,3.33-17.85,9.99-23.12,6.66-5.26,16.39-7.9,29.21-7.9Z"/>
  </g>
</svg>